<?xml version="1.0" standalone="no"?>
<!DOCTYPE svg PUBLIC "-//W3C//DTD SVG 20010904//EN" "http://www.w3.org/TR/2001/REC-SVG-20010904/DTD/svg10.dtd">
<svg version="1.0" xmlns="http://www.w3.org/2000/svg" width="1252.000000pt" height="634.000000pt" viewBox="0 0 1252.000000 634.000000" preserveAspectRatio="xMidYMid meet">
    <metadata>
        Created by potrace 1.16, written by Peter Selinger 2001-2019
    </metadata>

    <defs>
        <!-- 线性渐变 -->
        <linearGradient id="linearGrad" x1="0%" y1="0%" x2="100%" y2="0%">
            <stop offset="0%" stop-color="#ef7e5f" />
            <stop offset="100%" stop-color="#feb27a" />
        </linearGradient>

        <!-- 径向渐变 -->
        <radialGradient id="radialGrad" cx="50%" cy="50%" r="50%">
            <stop offset="0%" stop-color="#8f41e9" />
            <stop offset="100%" stop-color="#578aef" />
        </radialGradient>
    </defs>

    <g transform="translate(0.000000,634.000000) scale(0.100000,-0.100000)" fill="url(#radialGrad)" stroke="none">
        <!-- F -->
        <path fill="url(#linearGrad)" d="M1246 6024 c-104 -30 -213 -57 -242 -60 -48 -6 -57 -4 -99 24 -65 43 -94 47 -150 22 -25 -12 -54 -20 -63 -19 -34 3 -42 -2 -61 -38 -27 -53 -58 -79 -127 -107 -72 -29 -96 -60 -118 -157 -30 -131 -19 -191 40 -215 l35 -15 -7 -66 c-8 -74 -2 -83 56 -83 54 0 60 -12 60 -119 -1 -178 -27 -304 -69 -324 -33 -15 -51 -68 -58 -167 -3 -44 -13 -87 -23 -105 -24 -40 -27 -62 -55 -369 -13 -146 -36 -350 -51 -452 -14 -103 -23 -201 -20 -218 4 -19 23 -48 47 -71 l41 -39 -7 -143 -7 -143 39 -16 c61 -26 150 -24 197 5 66 42 185 248 206 360 6 30 15 177 20 325 10 296 21 380 54 428 20 29 29 32 156 58 141 29 395 93 514 130 157 49 144 118 -23 121 l-66 2 55 9 c115 21 143 32 163 65 10 18 21 57 24 88 7 67 -5 84 -83 116 -29 12 -51 26 -48 31 3 4 32 8 64 8 64 0 83 12 48 31 -32 17 -368 5 -588 -20 -96 -12 -176 -21 -177 -21 -2 0 -3 46 -3 103 0 122 18 201 61 264 36 52 130 117 203 139 129 38 546 94 739 98 l111 2 8 30 c5 16 6 45 3 64 -4 24 1 46 14 70 44 78 54 109 67 204 8 59 19 105 28 115 28 31 20 49 -26 56 -23 4 -186 5 -362 1 -177 -3 -314 -3 -306 0 25 11 50 36 44 45 -11 18 -74 7 -258 -47z m789 -63 c10 -18 -28 -28 -125 -35 -52 -4 -139 -11 -194 -17 -100 -10 -131 -4 -102 20 8 7 48 19 88 26 85 15 324 19 333 6z m-83 -309 c19 -19 0 -27 -86 -41 -120 -18 -484 -52 -529 -49 l-42 3 35 16 c46 21 192 56 305 74 111 17 298 16 317 -3z m-1495 -1579 c-2 -32 -3 -6 -3 57 0 63 1 89 3 58 2 -32 2 -84 0 -115z m55 -755 c-9 -20 -11 -18 -11 22 0 40 2 42 11 23 8 -17 8 -29 0 -45z"/>
        <!-- AM -->
        <path d="M3215 6126 c-27 -7 -96 -29 -153 -49 -120 -43 -136 -45 -127 -17 6 17 2 20 -29 20 -46 0 -70 -24 -106 -104 -41 -91 -100 -269 -100 -303 0 -19 9 -37 25 -51 25 -22 43 -68 31 -80 -4 -3 -16 -1 -26 6 -37 23 -56 14 -83 -37 -15 -27 -27 -63 -27 -80 0 -17 -4 -31 -9 -31 -5 0 -20 -21 -32 -47 -34 -69 -34 -185 0 -229 l23 -32 -24 -53 -25 -54 -20 46 c-28 63 -39 67 -62 21 -54 -106 -472 -1130 -501 -1228 -13 -43 -6 -70 32 -117 20 -25 22 -38 20 -120 -4 -144 20 -157 57 -31 23 80 53 124 82 124 24 0 25 -23 3 -97 -29 -99 -4 -122 137 -126 l72 -2 28 50 c59 104 98 194 142 322 26 73 55 150 66 172 40 77 135 131 331 186 179 50 295 90 293 100 -2 6 -18 14 -35 19 -43 11 -307 1 -380 -14 -62 -14 -91 -9 -82 14 8 22 41 32 284 86 124 28 258 60 299 71 98 26 106 19 106 -89 0 -72 -1 -77 -22 -80 -38 -6 -41 -63 -5 -104 11 -13 13 -32 9 -78 -3 -33 -3 -60 -1 -60 2 0 12 17 23 39 19 37 44 56 60 46 5 -2 11 -37 14 -77 4 -41 18 -108 32 -151 40 -123 30 -199 -23 -183 -12 4 -22 1 -25 -7 -13 -35 33 -290 58 -323 13 -18 14 -16 15 21 0 47 9 85 20 85 26 0 104 -284 122 -445 6 -55 16 -106 21 -112 5 -7 23 -13 39 -13 16 0 31 -6 34 -15 3 -8 -14 -59 -39 -112 -53 -115 -67 -161 -67 -225 0 -45 -11 -61 -25 -38 -14 22 -22 -3 -28 -87 -4 -48 -20 -151 -36 -228 -151 -718 -168 -828 -191 -1280 -12 -236 -27 -409 -41 -473 -6 -28 -6 -49 1 -62 6 -10 56 -41 113 -68 l102 -50 83 82 c46 44 93 99 104 121 11 22 26 47 34 56 36 41 75 352 80 637 3 185 8 243 28 345 14 67 35 195 46 285 23 176 49 297 64 297 6 0 22 -43 37 -95 15 -52 48 -149 72 -215 25 -66 55 -162 68 -214 25 -104 66 -177 146 -263 107 -114 159 -105 233 41 38 77 63 106 83 98 24 -9 22 -71 -2 -94 -27 -25 -41 -66 -41 -119 0 -54 17 -58 55 -13 40 48 76 126 148 319 72 194 134 339 174 409 38 66 85 131 95 131 4 0 8 -21 8 -48 0 -45 -11 -121 -94 -682 -52 -344 -66 -475 -72 -665 -8 -214 3 -306 42 -346 38 -40 120 -79 165 -79 35 0 39 3 48 36 19 68 112 171 184 202 15 6 27 18 27 27 0 8 11 135 25 283 30 327 46 577 39 595 -2 7 4 24 16 37 20 23 20 23 1 54 -19 31 -19 31 0 55 15 19 18 33 14 65 -4 31 -1 48 14 70 15 22 18 40 14 85 -5 54 -1 97 32 341 13 96 14 129 3 202 -11 86 -11 88 11 112 48 51 46 260 -4 361 -33 69 -132 176 -187 203 -48 23 -138 52 -163 52 -9 0 -29 -9 -45 -20 -58 -41 -237 -332 -420 -682 -97 -186 -150 -268 -171 -268 -27 0 9 76 185 385 213 374 240 424 232 432 -20 20 -66 -37 -276 -347 -187 -275 -211 -306 -221 -288 -4 7 -32 108 -63 223 -67 252 -94 310 -184 402 -77 79 -148 125 -206 133 l-40 5 -16 95 c-9 52 -27 157 -41 232 l-24 137 24 22 24 22 -6 406 c-3 223 -11 460 -17 525 -9 98 -9 122 2 133 8 7 47 22 87 33 81 23 160 60 181 85 24 28 -8 46 -99 55 -194 20 -296 89 -154 105 133 14 132 43 -1 54 -67 5 -90 11 -105 26 -14 15 -52 163 -141 550 -67 292 -123 531 -123 531 -1 1 -36 7 -76 13 -69 11 -116 28 -181 66 -30 17 -58 18 -125 1z m-2 -838 c20 -68 52 -179 71 -248 l34 -125 -42 -50 c-61 -73 -109 -93 -250 -107 -64 -6 -119 -8 -122 -6 -5 5 212 571 240 626 9 17 20 32 25 32 4 0 24 -55 44 -122z m-328 -120 c-9 -47 -55 -188 -71 -220 -18 -35 -42 -36 -54 -2 -16 41 -12 64 13 73 32 13 42 28 62 96 9 33 22 66 27 73 19 22 30 13 23 -20z m-345 -253 c0 -9 -7 -30 -16 -47 -22 -43 -41 -23 -24 26 11 36 40 50 40 21z m190 -158 c0 -34 -23 -77 -42 -77 -6 0 -9 13 -5 33 14 82 47 113 47 44z m-265 13 c7 -11 -8 -41 -43 -88 -30 -39 -34 -37 -23 9 5 19 12 46 15 62 6 27 38 38 51 17z m825 -35 c0 -8 -10 -21 -22 -29 -63 -41 -309 -78 -279 -43 12 15 78 36 206 66 99 24 95 24 95 6z m600 -1025 c6 -11 10 -48 8 -83 -3 -61 -3 -62 -17 -32 -18 40 -27 135 -13 135 6 0 16 -9 22 -20z m-250 -50 c0 -21 -45 -50 -80 -50 -30 0 -26 36 8 54 40 22 72 20 72 -4z m278 -532 c13 -13 17 -48 5 -48 -12 0 -43 33 -43 47 0 16 22 17 38 1z m1176 -741 c-31 -67 -97 -203 -147 -302 -105 -210 -160 -333 -193 -429 -26 -75 -39 -96 -60 -96 -23 0 -16 64 18 168 55 167 306 649 404 778 50 65 40 14 -22 -119z m143 -244 c-6 -161 -22 -297 -57 -505 -45 -264 -49 -155 -10 320 24 297 32 342 62 342 8 0 9 -45 5 -157z m-176 -1525 c24 -44 -4 -194 -38 -206 -16 -5 -17 51 -2 153 12 78 20 90 40 53z"/>
        <!-- I -->
        <path fill="url(#linearGrad)" d="M4895 5974 c-91 -9 -180 -25 -191 -35 -9 -8 -9 -17 3 -41 21 -41 7 -174 -46 -448 -22 -113 -47 -254 -56 -315 -18 -128 -23 -145 -37 -145 -7 0 -9 -23 -4 -70 4 -51 2 -80 -9 -110 -8 -22 -21 -57 -29 -78 -19 -50 -32 -153 -51 -397 -9 -110 -25 -281 -35 -379 -11 -99 -20 -207 -20 -241 0 -59 3 -66 46 -121 l46 -59 -4 -114 c-3 -111 -2 -114 22 -132 31 -23 177 -62 206 -54 12 2 24 15 28 27 3 13 37 78 75 146 38 67 76 142 85 165 11 32 16 111 20 337 3 162 12 374 21 470 30 336 97 737 175 1050 84 335 80 420 -22 471 -24 12 -52 32 -63 45 -21 25 -81 35 -160 28z m-165 -621 c0 -48 -19 -128 -36 -149 -14 -17 -15 -11 -11 66 5 89 24 151 39 128 4 -7 8 -27 8 -45z m-59 -419 c-13 -28 -31 -23 -31 8 0 12 5 51 12 87 l12 66 9 -68 c7 -48 6 -76 -2 -93z m-54 -246 c-2 -18 -4 -4 -4 32 0 36 2 50 4 33 2 -18 2 -48 0 -65z m33 -1198 c0 -38 -27 -93 -43 -87 -16 5 -14 82 3 101 21 26 40 19 40 -14z"/>
        <!-- RU -->
        <path fill="url(#radialGrad)" d="M5862 5985 c-64 -18 -331 -151 -425 -211 -106 -69 -111 -105 -21 -140 l45 -17 -52 -21 c-29 -12 -54 -27 -57 -33 -6 -21 47 -15 128 12 83 28 130 32 130 11 0 -8 -29 -26 -71 -42 -80 -30 -118 -59 -100 -77 6 -6 40 -14 77 -19 36 -4 73 -13 80 -19 18 -15 18 -53 -1 -69 -24 -20 -35 -80 -27 -150 l7 -65 37 135 c20 74 44 153 54 175 16 35 18 37 22 17 6 -41 -96 -503 -133 -597 -15 -40 -15 -39 -11 62 l4 102 -29 -55 c-35 -65 -78 -239 -148 -594 -66 -340 -92 -514 -94 -640 -2 -98 0 -108 25 -150 42 -71 111 -140 140 -140 28 0 52 22 67 63 13 35 39 35 47 0 12 -55 15 -61 41 -78 32 -21 91 -24 104 -5 5 8 7 38 4 66 -4 35 -1 64 10 95 43 115 46 135 75 510 12 160 32 245 64 278 l24 24 35 -48 c19 -27 67 -110 108 -184 111 -207 234 -403 319 -510 138 -173 461 -494 581 -576 22 -16 56 -31 76 -34 23 -4 43 -16 56 -34 20 -26 20 -29 4 -75 -22 -63 -26 -136 -37 -611 -10 -467 8 -395 -153 -594 -244 -302 -603 -693 -628 -685 -23 8 -49 62 -66 139 -13 57 -17 125 -17 299 0 296 22 449 139 960 83 361 93 470 42 470 -23 0 -57 -43 -57 -73 0 -9 -12 -30 -26 -47 -22 -26 -29 -29 -40 -18 -9 10 -10 27 -3 73 12 72 6 114 -22 149 -23 30 -63 34 -96 11 -51 -36 -123 -210 -170 -410 -24 -103 -42 -157 -43 -127 0 6 -9 12 -21 12 -16 0 -19 4 -14 18 44 104 47 119 46 217 0 84 3 105 19 130 21 31 26 80 11 103 -37 59 -119 -236 -176 -631 -79 -551 -88 -896 -30 -1152 72 -319 169 -506 294 -569 60 -31 130 -45 255 -52 100 -6 102 -6 196 31 52 21 175 75 273 121 97 46 181 84 186 84 4 0 13 -19 20 -42 7 -23 27 -55 44 -72 36 -35 39 -60 23 -243 -7 -87 -6 -103 6 -103 35 0 68 73 68 151 0 63 14 99 39 99 28 0 33 -38 21 -153 -12 -122 -7 -137 54 -137 45 0 76 22 76 54 0 9 14 25 31 34 67 36 86 59 93 109 30 233 156 2008 156 2199 0 87 -3 105 -21 128 -22 28 -60 34 -77 13 -6 -7 -15 -32 -21 -56 -19 -85 -40 -61 -38 43 2 121 -40 179 -114 157 -39 -12 -98 -70 -100 -99 0 -11 -6 -6 -14 13 -32 70 -8 130 63 158 80 32 79 61 -8 196 -33 50 -57 91 -55 91 2 0 26 -14 52 -30 47 -30 73 -38 73 -21 0 14 -40 62 -140 166 -128 134 -246 273 -365 430 -119 157 -186 242 -284 360 -87 104 -116 161 -102 198 12 31 41 51 162 110 111 54 211 140 296 254 94 127 158 263 124 263 -12 0 -89 -61 -166 -131 -97 -88 -137 -121 -142 -115 -8 7 15 45 114 184 127 179 150 223 158 314 9 92 -9 240 -37 316 -16 45 -38 74 -102 137 -96 96 -197 151 -352 191 -89 24 -120 27 -319 30 -173 3 -231 1 -273 -11z m473 -346 c183 -34 335 -140 335 -234 0 -33 -87 -127 -205 -222 -138 -111 -403 -280 -489 -313 l-29 -11 5 58 c8 78 115 565 140 631 32 85 112 115 243 91z m342 -52 c36 -34 38 -57 5 -57 -19 0 -82 59 -82 77 0 24 40 13 77 -20z m93 -271 c-7 -7 -14 -6 -22 2 -9 9 -9 26 1 74 19 91 26 93 29 9 2 -42 -2 -79 -8 -85z m-102 -128 c-29 -52 -131 -164 -136 -149 -2 6 7 28 19 48 27 44 118 143 131 143 5 0 -1 -19 -14 -42z m-1196 -596 c-10 -37 -10 -37 -11 18 0 43 2 51 10 37 7 -12 8 -30 1 -55z m1011 -936 c41 -53 32 -55 -18 -6 -25 24 -45 48 -45 52 0 16 37 -11 63 -46z m156 -212 c47 -40 37 -49 -14 -13 -25 18 -45 34 -45 36 0 12 33 -1 59 -23z m-767 -1092 c-10 -37 -10 -37 -11 18 0 43 2 51 10 37 7 -12 8 -30 1 -55z m-26 -204 c-13 -205 -34 -328 -57 -328 -15 0 -10 78 16 251 27 174 30 189 41 189 4 0 4 -51 0 -112z m-59 -405 c20 -80 0 -245 -28 -228 -10 7 -12 196 -3 233 8 30 22 28 31 -5z m957 -274 c-36 -53 -153 -177 -153 -164 -1 14 169 218 176 211 3 -3 -7 -24 -23 -47z m-860 -488 c21 -39 32 -111 18 -111 -16 0 -40 50 -48 99 -8 49 8 55 30 12z m292 -208 c38 -29 100 -65 137 -80 37 -14 71 -31 74 -36 11 -18 -85 2 -160 33 -106 44 -127 60 -143 105 -18 53 -18 60 4 44 11 -8 50 -38 88 -66z"/>
        <!-- Y -->
        <path fill="url(#linearGrad)" d="M8623 6003 c-37 -38 -111 -121 -164 -184 -218 -260 -222 -287 -8 -65 83 86 154 154 157 152 19 -19 -696 -986 -729 -986 -35 0 29 118 175 324 58 83 106 156 106 163 0 51 -89 -44 -205 -221 -50 -74 -93 -136 -97 -136 -10 0 -161 301 -226 451 -27 63 -64 160 -81 215 -43 139 -73 164 -158 129 -47 -20 -65 -13 -92 35 -12 22 -32 46 -44 55 -29 21 -96 20 -104 -1 -5 -14 9 -89 24 -130 2 -7 -7 -23 -22 -36 l-26 -25 47 -129 c25 -71 101 -273 169 -449 67 -176 141 -376 165 -445 40 -118 42 -133 45 -255 4 -132 15 -190 38 -183 6 3 14 15 15 29 6 38 19 43 38 15 14 -23 16 -42 11 -119 -3 -51 -12 -132 -19 -182 l-13 -90 -5 112 c-3 61 -8 114 -12 118 -17 18 -74 -122 -63 -156 4 -11 -2 -26 -13 -37 -28 -28 -45 -141 -46 -297 l-1 -130 35 -48 c34 -48 34 -48 38 -177 5 -149 -9 -133 132 -154 80 -12 98 -12 116 -1 27 17 81 99 128 192 32 64 36 81 36 148 0 165 73 576 138 770 42 128 163 375 257 524 146 233 296 431 541 717 87 102 169 202 181 222 43 71 18 181 -35 153 -12 -6 -33 -31 -48 -56 -42 -73 -109 -117 -129 -85 -9 15 13 50 74 113 l55 59 -23 18 c-47 35 -147 80 -200 90 -30 6 -63 17 -72 26 -17 15 -23 11 -86 -53z m91 -430 c-9 -16 -71 -104 -137 -196 -66 -93 -170 -251 -232 -350 -249 -400 -285 -451 -307 -429 -17 17 7 72 90 204 152 243 565 798 594 798 6 0 2 -12 -8 -27z m-1033 -2306 c-8 -8 -11 1 -11 29 0 53 14 67 18 19 2 -21 -1 -42 -7 -48z"/>
        
        <!-- S -->
        <path d="M8601 3077 c-42 -10 -108 -55 -276 -186 -193 -151 -258 -193 -289 -185 -22 5 -35 -3 -85 -54 -109 -111 -284 -403 -306 -510 -11 -51 26 -111 142 -232 130 -136 223 -201 223 -156 0 26 26 24 139 -15 63 -22 133 -39 157 -39 74 0 365 -110 441 -166 44 -33 51 -77 24 -140 -74 -165 -323 -316 -672 -404 -157 -39 -258 -48 -318 -26 -110 40 -166 7 -159 -94 6 -87 41 -142 168 -271 115 -116 154 -142 310 -207 22 -9 17 -11 -32 -11 -72 -1 -111 -15 -106 -39 5 -26 56 -26 177 -2 225 46 347 98 358 151 7 34 18 42 93 59 108 25 234 107 384 250 205 197 361 444 342 542 -19 96 -272 380 -451 506 -125 88 -200 129 -345 187 -163 66 -165 67 -151 92 13 25 116 102 227 171 201 125 366 185 619 228 55 9 108 21 118 26 18 9 18 11 -2 32 -12 12 -21 25 -21 28 0 3 29 8 65 10 43 3 71 10 82 21 20 19 19 20 -80 35 -107 16 -127 51 -30 52 59 0 73 8 73 41 0 40 -68 107 -151 147 -60 30 -98 38 -259 57 -95 11 -92 45 3 45 95 1 49 16 -93 30 -69 7 -161 18 -205 24 -50 8 -93 9 -114 3z m383 -383 c23 -9 20 -41 -6 -55 -11 -6 -62 -25 -112 -41 -104 -34 -278 -122 -451 -230 -167 -104 -223 -134 -232 -124 -17 17 127 128 306 235 159 96 378 200 451 214 14 2 26 5 27 6 1 0 8 -2 17 -5z m-61 -1784 c-22 -38 -103 -118 -103 -103 0 11 107 133 117 133 2 0 -4 -14 -14 -30z m-313 -210 c-13 -25 -47 -43 -66 -36 -22 9 -16 21 19 39 46 23 60 22 47 -3z m-190 -225 c0 -11 -42 -25 -102 -35 -100 -15 -173 6 -95 29 33 9 197 15 197 6z"/>
        <!-- I -->
        <path d="M9893 3031 c-66 -11 -73 -22 -73 -115 0 -113 -24 -299 -66 -506 -19 -96 -38 -213 -41 -260 -4 -56 -11 -88 -20 -93 -9 -6 -12 -28 -11 -80 2 -59 -2 -84 -24 -137 -37 -90 -45 -143 -73 -480 -14 -162 -30 -333 -35 -380 -5 -47 -10 -124 -10 -171 0 -76 3 -90 25 -120 13 -19 32 -45 42 -59 15 -21 18 -42 15 -143 l-2 -118 54 -25 c30 -14 82 -30 115 -36 68 -13 85 -6 94 40 3 15 23 54 43 87 130 211 137 232 127 423 -6 128 9 444 33 672 37 355 100 713 180 1020 26 96 49 209 51 250 7 96 -9 130 -75 164 -26 13 -57 36 -69 50 -22 25 -26 26 -130 25 -60 -1 -127 -5 -150 -8z m-76 -708 c-2 -21 -4 -6 -4 32 0 39 2 55 4 38 2 -18 2 -50 0 -70z m-27 -216 c0 -23 -9 -60 -19 -82 l-19 -40 -1 62 c-1 67 13 118 29 108 5 -3 10 -25 10 -48z m-60 -421 c-31 -31 -35 56 -7 149 12 39 12 37 15 -49 2 -55 -1 -93 -8 -100z m38 -1128 c4 -36 -52 -101 -68 -78 -13 19 -13 52 0 85 8 21 16 26 38 23 21 -2 28 -9 30 -30z"/>
        <!-- C -->
        <path d="M11346 2994 c-75 -17 -126 -39 -126 -54 0 -6 9 -10 21 -10 11 0 19 -4 17 -9 -1 -5 -66 -59 -143 -121 -77 -62 -183 -150 -235 -195 -128 -109 -189 -155 -211 -155 -40 0 -150 -165 -200 -300 -113 -310 -120 -988 -14 -1251 33 -81 98 -173 179 -254 74 -73 125 -105 170 -105 47 0 37 35 -60 192 -30 48 -54 90 -54 94 0 3 48 -40 107 -95 125 -119 194 -167 277 -193 52 -17 79 -19 186 -14 134 7 267 29 284 47 8 9 -23 10 -124 6 l-135 -5 130 33 c234 60 343 108 485 214 98 73 270 241 270 264 0 31 -26 18 -86 -41 -89 -88 -341 -247 -453 -287 -39 -13 -43 -13 -37 1 3 9 6 17 6 19 0 1 72 64 159 139 252 215 328 299 352 388 14 52 3 97 -38 163 l-35 56 -157 -153 c-233 -227 -384 -335 -547 -389 -47 -16 -98 -29 -114 -29 -47 0 -36 26 18 45 214 76 444 245 605 444 77 94 93 121 74 121 -22 0 -97 -59 -238 -188 -155 -140 -247 -208 -357 -265 -123 -64 -187 -80 -306 -79 -55 1 -103 5 -106 9 -16 18 -74 452 -74 553 -1 91 3 116 28 185 92 258 290 504 538 670 130 88 309 137 503 139 88 0 135 -4 178 -17 42 -13 62 -15 77 -7 25 13 40 41 40 73 0 62 -181 240 -305 300 -130 64 -401 94 -549 61z m-806 -840 c0 -29 -16 -64 -30 -64 -14 0 -12 34 2 65 15 32 28 32 28 -1z m-45 -1048 c20 -46 32 -176 17 -176 -16 0 -42 96 -42 157 0 29 2 53 6 53 3 0 11 -15 19 -34z"/>

        <path d="M11029 2848 c-72 -38 -91 -65 -38 -54 43 8 169 66 169 77 0 20 -72 7 -131 -23z"/>
        <path d="M10759 2573 c-40 -42 -60 -67 -44 -55 39 27 130 120 124 126 -3 3 -39 -29 -80 -71z"/>
        <path d="M7012 5168 c-14 -14 -16 -54 -3 -62 13 -8 36 53 24 65 -5 5 -13 5 -21 -3z"/>
        <path d="M3414 3966 c-3 -7 1 -46 9 -87 20 -110 56 -105 57 8 0 58 -15 93 -40 93 -11 0 -23 -6 -26 -14z"/>
        <path d="M5032 3065 c-31 -34 -50 -94 -37 -114 28 -46 130 80 108 135 -9 24 -40 15 -71 -21z"/>
    </g>
</svg>
